<svg xmlns="http://www.w3.org/2000/svg" width="83.014" height="65.654" viewBox="0 0 83.014 65.654">
  <g id="turn-mobile-ls" transform="translate(0 -30.466)">
    <circle id="Ellipse_89" data-name="Ellipse 89" cx="2.218" cy="2.218" r="2.218" transform="translate(23.577 74.151)" fill="#f98d29"/>
    <path id="Path_6284" data-name="Path 6284" d="M76.057,63.544H39.5v-19.2a6.965,6.965,0,0,0-6.957-6.957H6.957A6.965,6.965,0,0,0,0,44.349V96.088a6.965,6.965,0,0,0,6.957,6.957h69.1a6.965,6.965,0,0,0,6.957-6.957V70.5A6.965,6.965,0,0,0,76.057,63.544ZM33.621,68.326h35.77V98.264H33.621V68.326Zm-9.3-4.781A6.965,6.965,0,0,0,17.36,70.5V86.785H4.781V51.015H34.72V63.544h-10.4ZM6.957,42.173H32.544a2.178,2.178,0,0,1,2.176,2.176v1.884H4.781V44.349A2.178,2.178,0,0,1,6.957,42.173ZM4.781,96.088V91.567H17.36v4.522a6.93,6.93,0,0,0,.35,2.176H6.957A2.178,2.178,0,0,1,4.781,96.088Zm17.36,0V70.5a2.178,2.178,0,0,1,2.176-2.176h4.522V98.264H24.317A2.178,2.178,0,0,1,22.141,96.088Zm56.091,0a2.178,2.178,0,0,1-2.176,2.176H74.172V68.326h1.884A2.178,2.178,0,0,1,78.232,70.5Z" transform="translate(0 -6.926)" fill="#f98d29"/>
    <path id="Path_6285" data-name="Path 6285" d="M178.832,47.946a10.626,10.626,0,0,0,7.988-7.819l-1.483,1.483a1.992,1.992,0,0,1-2.817-2.817l5.19-5.19a1.992,1.992,0,0,1,2.817,0l5.189,5.189a1.992,1.992,0,0,1-2.817,2.817l-1.937-1.937a14.606,14.606,0,0,1-12.513,12.383c-.1.155-5.972.941-6.091-1.276S178.832,47.946,178.832,47.946Z" transform="translate(15.513 226.995) rotate(-90)" fill="#f98d29"/>
  </g>
</svg>
