<svg xmlns="http://www.w3.org/2000/svg" width="285.952" height="213.097" viewBox="0 0 285.952 213.097">
  <g id="character-session-expired" transform="translate(-799 -302.465)">
    <g id="Background_Complete" data-name="Background Complete" transform="translate(799 283.652)">
      <g id="Group_1" data-name="Group 1" transform="translate(0 18.813)">
        <rect id="Rectangle_1" data-name="Rectangle 1" width="285.953" height="0.143" transform="translate(0 187.268)" fill="#ebebeb"/>
        <rect id="Rectangle_2" data-name="Rectangle 2" width="18.943" height="0.143" transform="translate(238.358 196.473)" fill="#ebebeb"/>
        <rect id="Rectangle_3" data-name="Rectangle 3" width="7.37" height="0.143" transform="translate(148.887 194.681)" fill="#ebebeb"/>
        <rect id="Rectangle_4" data-name="Rectangle 4" width="15.521" height="0.143" transform="translate(184.455 195.285)" fill="#ebebeb"/>
        <rect id="Rectangle_5" data-name="Rectangle 5" width="32.09" height="0.143" transform="translate(205.695 191.162)" fill="#ebebeb"/>
        <rect id="Rectangle_6" data-name="Rectangle 6" width="15.171" height="0.143" transform="translate(30.002 197.779)" fill="#ebebeb"/>
        <rect id="Rectangle_7" data-name="Rectangle 7" width="13.154" height="0.143" transform="translate(50.264 197.779)" fill="#ebebeb"/>
        <rect id="Rectangle_8" data-name="Rectangle 8" width="34.78" height="0.143" transform="translate(74.92 194.609)" fill="#ebebeb"/>
        <path id="Path_1" data-name="Path 1" d="M151.906,216.715H41.471a3.268,3.268,0,0,1-3.264-3.264V58.217a3.268,3.268,0,0,1,3.264-3.264H151.906a3.268,3.268,0,0,1,3.264,3.264V213.45A3.268,3.268,0,0,1,151.906,216.715ZM41.471,55.1a3.125,3.125,0,0,0-3.121,3.121V213.45a3.125,3.125,0,0,0,3.121,3.121H151.906a3.125,3.125,0,0,0,3.121-3.121V58.217a3.124,3.124,0,0,0-3.121-3.121Z" transform="translate(-16.356 -54.953)" fill="#ebebeb"/>
        <path id="Path_2" data-name="Path 2" d="M368.2,216.715H257.769a3.268,3.268,0,0,1-3.264-3.264V58.217a3.267,3.267,0,0,1,3.264-3.264H368.2a3.268,3.268,0,0,1,3.265,3.264V213.45A3.269,3.269,0,0,1,368.2,216.715ZM257.769,55.1a3.124,3.124,0,0,0-3.121,3.121V213.45a3.125,3.125,0,0,0,3.121,3.121H368.2a3.125,3.125,0,0,0,3.122-3.121V58.217A3.125,3.125,0,0,0,368.2,55.1Z" transform="translate(-108.952 -54.953)" fill="#ebebeb"/>
      </g>
    </g>
    <g id="Shadow" transform="translate(831.09 502.609)">
      <ellipse id="_Path_" data-name="&lt;Path&gt;" cx="110.886" cy="6.476" rx="110.886" ry="6.476" transform="translate(0 0)" fill="#f5f5f5"/>
    </g>
    <g id="Question_Marks" data-name="Question Marks" transform="translate(858.558 400.987)">
      <g id="Group_15" data-name="Group 15" transform="translate(0 0)">
        <g id="Group_13" data-name="Group 13" transform="translate(12.493)">
          <path id="Path_13" data-name="Path 13" d="M152.979,238.785l-.527-.224a10.37,10.37,0,0,0,.832-2.834l.568.062A10.932,10.932,0,0,1,152.979,238.785Zm-.225-6.552a7.626,7.626,0,0,0-5.965-4.446l.095-.564a8.174,8.174,0,0,1,6.39,4.773Z" transform="translate(-134.891 -227.223)" fill="#f98d29"/>
          <path id="Path_14" data-name="Path 14" d="M140.853,245.937l-5.627,2.562-.256-.563a7.617,7.617,0,0,1-.736-2.48,5.672,5.672,0,0,1,.225-2.078,32.732,32.732,0,0,1,1.708-3.924,2.853,2.853,0,0,0,.384-2.337,1.816,1.816,0,0,0-1.057-1.047,2.271,2.271,0,0,0-1.664.212,2.578,2.578,0,0,0-1.423,1.488,4.48,4.48,0,0,0,.225,2.83l-6.069,1.9a8.6,8.6,0,0,1-.019-6.149q1.126-2.846,5.272-4.733a10.018,10.018,0,0,1,5.825-1.025,6.155,6.155,0,0,1,4.906,3.63,5.145,5.145,0,0,1,.409,2.745,13.147,13.147,0,0,1-1.542,4.152,8.386,8.386,0,0,0-1.021,2.762A4.275,4.275,0,0,0,140.853,245.937Zm-5.139,4.145,6.027-2.743,2.42,5.316-6.026,2.743Z" transform="translate(-125.984 -228.623)" fill="#f98d29"/>
        </g>
        <g id="Group_14" data-name="Group 14" transform="translate(0 20.439)">
          <path id="Path_15" data-name="Path 15" d="M117.58,272.553l-2.863,3.886-.388-.286a5.972,5.972,0,0,1-1.445-1.411,4.432,4.432,0,0,1-.637-1.5,25.562,25.562,0,0,1-.327-3.325,2.228,2.228,0,0,0-.627-1.739,1.419,1.419,0,0,0-1.119-.312,1.772,1.772,0,0,0-1.054.778,2.012,2.012,0,0,0-.4,1.555,3.5,3.5,0,0,0,1.229,1.844l-3.414,3.606a6.708,6.708,0,0,1-2.351-4.185q-.314-2.369,1.8-5.232a7.819,7.819,0,0,1,3.582-2.914,4.8,4.8,0,0,1,4.725.61,4.019,4.019,0,0,1,1.323,1.716,10.274,10.274,0,0,1,.527,3.417,6.54,6.54,0,0,0,.353,2.272A3.337,3.337,0,0,0,117.58,272.553Zm-1.928,4.779,3.066-4.162,3.671,2.7-3.066,4.162Z" transform="translate(-104.139 -262.962)" fill="#f98d29"/>
        </g>
      </g>
    </g>
    <g id="Character" transform="translate(872.645 371.296)">
      <g id="Group_21" data-name="Group 21" transform="translate(0 0)">
        <path id="Path_16" data-name="Path 16" d="M224.1,385.069a2.565,2.565,0,0,1-2.28-1.387,65.6,65.6,0,0,0-10.382-15.288,2.566,2.566,0,0,1-.579-2.449c1.93-6.7,4.959-15.852,4.989-15.944a2.565,2.565,0,0,1,4.87,1.613c-.028.085-2.637,7.971-4.531,14.387a72.138,72.138,0,0,1,10.189,15.324,2.566,2.566,0,0,1-2.276,3.745Z" transform="translate(-163.87 -249.339)" fill="#f98d29"/>
        <path id="Path_17" data-name="Path 17" d="M226.668,411.761h-19.9l10.544-5.981,8.839.342Z" transform="translate(-162.163 -273.971)" fill="#263238"/>
        <ellipse id="Ellipse_1" data-name="Ellipse 1" cx="17.181" cy="14.238" rx="17.181" ry="14.238" transform="translate(37.701 91.636) rotate(-17.357)" fill="#263238"/>
        <path id="Path_18" data-name="Path 18" d="M149.731,309.268a2.565,2.565,0,0,1-.983-4.936,2.894,2.894,0,0,0,1.7-2.156,2.564,2.564,0,0,1,2.1-2.285,18.3,18.3,0,0,0,1.886-.483c3.476-1.015,7.781-2.274,21.338,1.522a26.58,26.58,0,0,0,13.524-22.107,2.569,2.569,0,0,1,2.556-2.57h.009a2.561,2.561,0,0,1,2.564,2.544c.005.745-.078,18.348-17.181,27.165a2.554,2.554,0,0,1-1.887.184c-12.922-3.732-16.561-2.668-19.484-1.814-.259.075-.522.152-.789.226a7.914,7.914,0,0,1-4.37,4.513A2.562,2.562,0,0,1,149.731,309.268Z" transform="translate(-136.645 -218.522)" fill="#263238"/>
        <path id="Path_19" data-name="Path 19" d="M199.743,247.7c-4.865-19.345-17.834-69.235,23.715-72.285,37.276-2.736,47.506,46.88,49.993,64.068a201.475,201.475,0,0,1,2.021,26.2,19.048,19.048,0,0,1-15.3,18.88c-20.309,4.125-39.528,4.711-52.471-.4a8.5,8.5,0,0,1-5.28-8.7C202.918,269.918,202.927,260.361,199.743,247.7Z" transform="translate(-156.673 -175.307)" fill="#f98d29"/>
        <path id="Path_20" data-name="Path 20" d="M292.524,239.561c-2.343-16.2-11.564-61.218-43.842-64.033a9.382,9.382,0,0,0-9.193,4.871,9.208,9.208,0,0,0,.763,9.514c7.115,11.032,24.08,49.161,21.518,69.938-1.167,9.454-7.1,17-1.936,27.629a166.516,166.516,0,0,0,19.41-2.837,19.041,19.041,0,0,0,15.3-18.879A201.105,201.105,0,0,0,292.524,239.561Z" transform="translate(-175.747 -175.386)" opacity="0.1"/>
        <path id="Path_21" data-name="Path 21" d="M285.329,266.816a.256.256,0,0,1-.256-.253,200.209,200.209,0,0,0-2.019-26.17c-6.176-42.694-22.8-64.287-48.1-62.424a.253.253,0,0,1-.275-.237.257.257,0,0,1,.237-.275c25.594-1.888,42.419,19.858,48.641,62.862a200.739,200.739,0,0,1,2.024,26.238.257.257,0,0,1-.253.259Z" transform="translate(-174.111 -176.179)" fill="#263238"/>
        <ellipse id="Ellipse_2" data-name="Ellipse 2" cx="17.181" cy="14.238" rx="17.181" ry="14.238" transform="translate(85.93 93.004) rotate(-17.358)" fill="#263238"/>
        <path id="Path_22" data-name="Path 22" d="M315.308,385.068a2.565,2.565,0,0,1-2.28-1.387,65.612,65.612,0,0,0-10.382-15.288,2.566,2.566,0,0,1-.578-2.449c1.93-6.7,4.959-15.852,4.989-15.944a2.566,2.566,0,0,1,4.871,1.613c-.029.085-2.638,7.971-4.532,14.387a72.14,72.14,0,0,1,10.189,15.324,2.566,2.566,0,0,1-2.276,3.745Z" transform="translate(-202.915 -249.338)" fill="#f98d29"/>
        <path id="Path_23" data-name="Path 23" d="M307.062,235.952a2.566,2.566,0,0,1-1.2-4.834h0a32.106,32.106,0,0,0,14.8-21.028c-7.447-3.115-20.831-10.145-23.757-13.678a2.569,2.569,0,0,1-.55-1.191,12.764,12.764,0,0,1,.572-6.292l-1.351-2.609a2.565,2.565,0,0,1,4.556-2.359l1.943,3.753a2.565,2.565,0,0,1-.1,2.532,6.248,6.248,0,0,0-.64,3.381c3.3,2.977,16.609,10.033,23.12,12.451a2.565,2.565,0,0,1,1.643,2.8,37.423,37.423,0,0,1-17.846,26.782A2.554,2.554,0,0,1,307.062,235.952Z" transform="translate(-200.056 -178.418)" fill="#263238"/>
        <path id="Path_24" data-name="Path 24" d="M300.607,201.488a1.282,1.282,0,0,1-1.073-1.984c.089-.136,2.209-3.334,5.435-4.2a1.283,1.283,0,0,1,.665,2.477c-2.253.6-3.935,3.1-3.952,3.124A1.281,1.281,0,0,1,300.607,201.488Z" transform="translate(-201.784 -183.849)" fill="#263238"/>
        <path id="Path_25" data-name="Path 25" d="M317.875,411.761h-19.9l10.544-5.981,8.839.342Z" transform="translate(-201.208 -273.971)" fill="#263238"/>
        <g id="Group_16" data-name="Group 16" transform="translate(58.229 33.439)">
          <ellipse id="Ellipse_3" data-name="Ellipse 3" cx="13.682" cy="12.314" rx="13.682" ry="12.314" transform="matrix(0.996, -0.088, 0.088, 0.996, 0.968, 4.408)" fill="#fff"/>
          <ellipse id="Ellipse_4" data-name="Ellipse 4" cx="3.759" cy="6.839" rx="3.759" ry="6.839" transform="matrix(0.962, -0.274, 0.274, 0.962, 6.858, 11.118)" fill="#263238"/>
          <path id="Path_26" data-name="Path 26" d="M230.706,251.554c8.637-1.112,25.739-5.986,28.561-7.952-2.224-6.5-12.558-12.057-21.806-8.926C229.125,237.5,230.706,251.554,230.706,251.554Z" transform="translate(-230.586 -233.777)" fill="#263238"/>
          <path id="Path_27" data-name="Path 27" d="M233.734,266.434c10.719-2.037,24.657-5.458,28.643-7.649-.246,6.994-2.276,14.078-13.222,16.472C240.213,277.214,233.734,266.434,233.734,266.434Z" transform="translate(-231.934 -244.483)" fill="#263238"/>
        </g>
        <g id="Group_17" data-name="Group 17" transform="translate(32.42 39.689)">
          <ellipse id="Ellipse_5" data-name="Ellipse 5" cx="8.418" cy="10.652" rx="8.418" ry="10.652" transform="matrix(0.834, -0.552, 0.552, 0.834, 0, 9.29)" fill="#fff"/>
          <path id="Path_28" data-name="Path 28" d="M204.493,264.646c.651,3.064.089,5.62-1.254,5.709s-2.96-2.323-3.61-5.387-.089-5.62,1.254-5.709S203.843,261.582,204.493,264.646Z" transform="translate(-191.409 -250.934)" fill="#263238"/>
          <path id="Path_29" data-name="Path 29" d="M189.709,257.486c5.795.684,17.3-.078,19.212-1.125-1.413-5.549-8.266-11.822-14.493-11.018C188.815,246.069,189.709,257.486,189.709,257.486Z" transform="translate(-187.256 -244.948)" fill="#263238"/>
          <path id="Path_30" data-name="Path 30" d="M191.63,272.29c7.2.328,16.57.144,19.264-.87-.246,5.494-1.688,10.736-9.043,10.65C195.842,282,191.63,272.29,191.63,272.29Z" transform="translate(-188.101 -256.141)" fill="#263238"/>
        </g>
        <path id="Path_31" data-name="Path 31" d="M249.6,221.655a32.283,32.283,0,0,1-18.334-5.6,2.565,2.565,0,0,1,3.094-4.093,28,28,0,0,0,20.5,4.067,2.565,2.565,0,0,1,.956,5.041A33.281,33.281,0,0,1,249.6,221.655Z" transform="translate(-172.216 -190.776)" fill="#263238"/>
        <path id="Path_32" data-name="Path 32" d="M181.957,213.116a2.565,2.565,0,0,1-2.414-3.433c1.36-3.786,3.615-6.244,6.7-7.306,5.6-1.928,11.625,1.82,11.879,1.981a2.565,2.565,0,0,1-2.733,4.342c-1.168-.727-4.789-2.4-7.492-1.466-1.558.542-2.712,1.91-3.529,4.184A2.565,2.565,0,0,1,181.957,213.116Z" transform="translate(-150.441 -186.661)" fill="#263238"/>
        <path id="Path_33" data-name="Path 33" d="M218.656,293.7a.73.73,0,0,1-.214-.031.764.764,0,0,1-.527-.939,5.024,5.024,0,0,1,2.609-2.819c2.943-1.517,7.428-1.2,13.331.933a.77.77,0,0,1-.524,1.447c-6.769-2.452-10.282-1.922-12.038-1.045a3.571,3.571,0,0,0-1.9,1.9A.777.777,0,0,1,218.656,293.7Z" transform="translate(-166.921 -223.966)" fill="#263238"/>
        <g id="Group_20" data-name="Group 20" transform="translate(0 66.818)">
          <g id="Group_18" data-name="Group 18" transform="translate(1.902 0.102)">
            <path id="Path_34" data-name="Path 34" d="M157.709,292.32a68.261,68.261,0,0,0-25.613,7.521c4.42-.834,20.22,18.717,24.282,33.8,7.493-2.779,16.232-4.671,25.552-6.149C176.285,311.946,165.963,294.34,157.709,292.32Z" transform="translate(-132.096 -292.32)" fill="#f98d29"/>
            <path id="Path_35" data-name="Path 35" d="M157.709,292.32a68.261,68.261,0,0,0-25.613,7.521c4.42-.834,20.22,18.717,24.282,33.8,7.493-2.779,16.232-4.671,25.552-6.149C176.285,311.946,165.963,294.34,157.709,292.32Z" transform="translate(-132.096 -292.32)" fill="#fff" opacity="0.6"/>
          </g>
          <g id="Group_19" data-name="Group 19">
            <path id="Path_36" data-name="Path 36" d="M156.286,292.243c-9.768-1.1-25.628,7.076-25.628,7.076a4.16,4.16,0,0,0-.514,6.571c1.471-2.111,17.862-7.6,24.024-8.34C151.1,294.714,153.95,292.657,156.286,292.243Z" transform="translate(-128.771 -292.141)" fill="#f98d29"/>
            <path id="Path_37" data-name="Path 37" d="M156.286,292.243c-9.768-1.1-25.628,7.076-25.628,7.076a4.16,4.16,0,0,0-.514,6.571c1.471-2.111,17.862-7.6,24.024-8.34C151.1,294.714,153.95,292.657,156.286,292.243Z" transform="translate(-128.771 -292.141)" fill="#f98d29" opacity="0.2"/>
          </g>
        </g>
        <path id="Path_38" data-name="Path 38" d="M149.27,325.718a2.561,2.561,0,0,1-2.151-1.164c-1.86-2.85-.7-7.2-.447-8.043a2.565,2.565,0,0,1,4.917,1.464c-.419,1.435-.5,3.27-.174,3.776a2.566,2.566,0,0,1-2.146,3.967Z" transform="translate(-136.182 -234.972)" fill="#263238"/>
      </g>
    </g>
  </g>
</svg>
