<svg xmlns="http://www.w3.org/2000/svg" width="291.571" height="164.949" viewBox="0 0 291.571 164.949">
  <g id="session_ended_group" transform="translate(-802.381 -425.803)">
    <g id="Group_4021" data-name="Group 4021" transform="translate(688.679 -115.582)">
      <path id="Path_11858" data-name="Path 11858" d="M297.711,546.745V706.333H218.933V546.745h78.778Z" transform="translate(0)" fill="#ffdeba"/>
      <path id="Path_11859" data-name="Path 11859" d="M315.837,573.686V729.531H244.425V573.686h71.412Z" transform="translate(-21.979 -23.228)" fill="#ffe7ce"/>
      <path id="Path_11860" data-name="Path 11860" d="M688.8,1138.133a2.372,2.372,0,1,1,2.372,2.371A2.372,2.372,0,0,1,688.8,1138.133Z" transform="translate(-405.112 -507.837)" fill="#f8d3aa"/>
      <g id="Group_4018" data-name="Group 4018" transform="translate(229.659 558.217)">
        <path id="Path_11861" data-name="Path 11861" d="M355.231,652.888H296.756v-22.9h58.475Zm-57.931-.545h57.386V630.529H297.3Z" transform="translate(-296.756 -629.984)" fill="#f8d3aa"/>
      </g>
      <g id="Group_4019" data-name="Group 4019" transform="translate(229.659 586.674)">
        <path id="Path_11862" data-name="Path 11862" d="M355.231,859.367H296.756v-22.9h58.475Zm-57.931-.545h57.386V837.008H297.3Z" transform="translate(-296.756 -836.463)" fill="#f8d3aa"/>
      </g>
      <g id="Group_4020" data-name="Group 4020" transform="translate(229.659 637.344)">
        <path id="Path_11863" data-name="Path 11863" d="M355.231,1265.273H296.756V1204.11h58.475Zm-57.931-.545h57.386v-60.074H297.3Z" transform="translate(-296.756 -1204.11)" fill="#f8d3aa"/>
      </g>
    </g>
    <rect id="Rectangle_2186" data-name="Rectangle 2186" width="291.571" height="1.341" rx="0.67" transform="translate(802.381 589.411)" fill="rgba(46,53,82,0.06)"/>
    <g id="Group_4063" data-name="Group 4063" transform="translate(-461.56 151.288)">
      <circle id="Ellipse_642" data-name="Ellipse 642" cx="5.506" cy="5.506" r="5.506" transform="translate(1470.734 294.538) rotate(-45)" fill="#f9ddbf"/>
      <g id="Group_4062" data-name="Group 4062" transform="translate(1467.956 274.515)">
        <path id="Path_11994" data-name="Path 11994" d="M1539.125,274.6v8.973c0,.733-.021,1.427-.042,2.076v.013a21.833,21.833,0,0,1-.355,3.428c-.106.48-.229.754-.364.754h-.1c-.131,0-.253-.3-.361-.815a22.1,22.1,0,0,1-.316-2.88v-.008c0-.166-.021-.332-.021-.5v-.054c-.021-.629-.042-1.3-.042-2.015v-9.061C1538.061,274.54,1538.595,274.571,1539.125,274.6Z" transform="translate(-1527.339 -274.515)" fill="#588ec1"/>
        <path id="Path_11995" data-name="Path 11995" d="M1478.521,350.15c-5.835,0-10.565,5-10.565,11.172h21.13C1489.086,355.152,1484.356,350.15,1478.521,350.15Z" transform="translate(-1467.956 -339.081)" fill="#ff9843"/>
        <path id="Path_11996" data-name="Path 11996" d="M1500.334,350.491a4.341,4.341,0,0,0-.928-.1c-3.8,0-6.884,4.986-6.884,11.136h1.856C1494.379,355.885,1496.972,351.224,1500.334,350.491Z" transform="translate(-1488.928 -339.286)" fill="#ffc48a"/>
      </g>
    </g>
    <g id="Group_4065" data-name="Group 4065" transform="translate(85.792 400.235)">
      <g id="Group_4049" data-name="Group 4049" transform="translate(747.279 132.285)">
        <path id="Path_11930" data-name="Path 11930" d="M2465.1,1253.77v1.421c0,.5.161.9.358.9h51.858c.2,0,.358-.406.358-.9v-1.421c0-.5-.161-.9-.358-.9h-51.858C2465.257,1252.866,2465.1,1253.273,2465.1,1253.77Z" transform="translate(-2465.096 -1252.866)" fill="#f0c597"/>
        <path id="Path_11931" data-name="Path 11931" d="M2465.1,1253.77v1.421c0,.5.148.9.328.9h41.17c.18,0,.328-.406.328-.9v-1.421c0-.5-.148-.9-.328-.9h-41.17C2465.244,1252.866,2465.1,1253.273,2465.1,1253.77Z" transform="translate(-2465.096 -1252.866)" fill="#ffe7ce"/>
        <rect id="Rectangle_2182" data-name="Rectangle 2182" width="36.816" height="53.662" transform="translate(49.942 56.891) rotate(180)" fill="#ffdeba"/>
        <rect id="Rectangle_2183" data-name="Rectangle 2183" width="36.816" height="53.662" transform="translate(39.624 56.891) rotate(180)" fill="#ffe7ce"/>
        <g id="Group_4048" data-name="Group 4048" transform="translate(4.786 4.745)">
          <g id="Group_4045" data-name="Group 4045">
            <path id="Path_11932" data-name="Path 11932" d="M2502.943,1290.391h32.86v49.183h-32.86Zm32.505.355H2503.3v48.473h32.15Z" transform="translate(-2502.943 -1290.391)" fill="#f8d3aa"/>
          </g>
          <g id="Group_4046" data-name="Group 4046" transform="translate(0.177 16.27)">
            <rect id="Rectangle_2184" data-name="Rectangle 2184" width="32.505" height="0.355" fill="#f8d3aa"/>
          </g>
          <g id="Group_4047" data-name="Group 4047" transform="translate(0.177 32.857)">
            <rect id="Rectangle_2185" data-name="Rectangle 2185" width="32.505" height="0.355" fill="#f8d3aa"/>
          </g>
          <path id="Path_11933" data-name="Path 11933" d="M2602.856,1308.122h6.032a.534.534,0,0,0,.532-.532h0a.534.534,0,0,0-.532-.532h-6.032a.534.534,0,0,0-.532.532h0A.534.534,0,0,0,2602.856,1308.122Z" transform="translate(-2589.757 -1304.95)" fill="#f8d3aa"/>
          <path id="Path_11934" data-name="Path 11934" d="M2602.856,1436.4h6.032a.534.534,0,0,0,.532-.532h0a.534.534,0,0,0-.532-.532h-6.032a.534.534,0,0,0-.532.532h0A.534.534,0,0,0,2602.856,1436.4Z" transform="translate(-2589.757 -1417.003)" fill="#f8d3aa"/>
          <path id="Path_11935" data-name="Path 11935" d="M2602.856,1570.112h6.032a.534.534,0,0,0,.532-.532h0a.534.534,0,0,0-.532-.532h-6.032a.534.534,0,0,0-.532.532h0A.534.534,0,0,0,2602.856,1570.112Z" transform="translate(-2589.757 -1533.811)" fill="#f8d3aa"/>
        </g>
      </g>
      <g id="Group_4061" data-name="Group 4061" transform="translate(753.614 79.355)">
        <g id="Group_4056" data-name="Group 4056" transform="translate(21.064 21.03)">
          <path id="Path_11981" data-name="Path 11981" d="M2719.236,1009.509s-3.685-4.3-.227-7.03a9.807,9.807,0,0,1,4.585-1.4s-2.918,4.893-1.974,5.38,2.858-5.687,2.858-5.687,5.748-.557,7.6.332c0,0-4.914,4.021-3.879,4.26s6.342-3.707,6.342-3.707,5.35.91,5.064,4.174-2.129,4.271-2.939,4.184-5.549-1.9-5.652-1.232,2.749,2.833,4.747,2.935c0,0-3.771,4.159-6.278,2.959s-2.72-3.1-4.283-3.817-2.9-.712-2.251.016,3.473,1.435,4.367,3.016,1.7,2.647-.9,2.256-6.809-2.288-6.994-4.461Z" transform="translate(-2713.008 -1000.595)" fill="#82b378"/>
          <g id="Group_4055" data-name="Group 4055" transform="translate(0 5.294)">
            <path id="Path_11982" data-name="Path 11982" d="M2726.431,1042.483s-14.53-.56-17.739,3.6a10.51,10.51,0,0,1-2.893,4.061l-.34.928s2.518-2.655,3.419-2.815C2708.878,1048.251,2707.469,1043.1,2726.431,1042.483Z" transform="translate(-2702.464 -1042.457)" fill="#82b378"/>
            <path id="Path_11983" data-name="Path 11983" d="M2685.109,1100.675a9.125,9.125,0,0,0-3.335,6.427l.566.051s1-4.261,2.8-5.927S2685.109,1100.675,2685.109,1100.675Z" transform="translate(-2681.774 -1092.994)" fill="#82b378"/>
          </g>
        </g>
        <g id="Group_4058" data-name="Group 4058" transform="translate(0 17.585)">
          <path id="Path_11984" data-name="Path 11984" d="M2530.686,984.287s4.222-2.364,2.252-5.573a8.383,8.383,0,0,0-3.265-2.477s.9,4.785,0,4.9-.619-5.4-.619-5.4-4.447-2.139-6.192-1.97c0,0,2.758,4.672,1.858,4.56s-4-4.841-4-4.841-4.56-.844-5.292,1.858.45,4.053,1.126,4.222,5.01.113,4.9.675-3.04,1.464-4.672.957c0,0,1.8,4.447,4.166,4.222s3.1-1.689,4.56-1.8,2.533.281,1.8.676-3.209.129-4.391,1.134-2.139,1.624.056,2.075,6.136.169,6.924-1.52Z" transform="translate(-2515.2 -973.354)" fill="#a8d29f"/>
          <g id="Group_4057" data-name="Group 4057" transform="translate(2.314 2.827)">
            <path id="Path_11985" data-name="Path 11985" d="M2533.5,995.71s11.821,3.828,13.172,8.106a8.981,8.981,0,0,0,1.126,4.109v.844s-1.238-2.871-1.914-3.265C2545.882,1005.5,2548.528,1001.79,2533.5,995.71Z" transform="translate(-2533.498 -995.71)" fill="#82b378"/>
            <path id="Path_11986" data-name="Path 11986" d="M2642.668,1088.681a7.8,7.8,0,0,1,.784,6.138l-.469-.126s.455-3.712-.5-5.579S2642.668,1088.681,2642.668,1088.681Z" transform="translate(-2628.37 -1076.465)" fill="#82b378"/>
          </g>
        </g>
        <g id="Group_4060" data-name="Group 4060" transform="translate(18.654)">
          <path id="Path_11987" data-name="Path 11987" d="M2667.8,854.3s-7.727-4.327-4.121-10.2c0,0,2.885-3.606,5.976-4.533,0,0-1.648,8.757,0,8.963s1.134-9.891,1.134-9.891,8.139-3.915,11.333-3.606c0,0-5.048,8.551-3.4,8.345s7.315-8.86,7.315-8.86,8.345-1.545,9.685,3.4-.824,7.418-2.061,7.727-9.17.206-8.963,1.236,5.563,2.679,8.551,1.752c0,0-3.3,8.139-7.624,7.727s-5.667-3.091-8.345-3.3-4.636.515-3.3,1.236,5.873.236,8.036,2.076,3.915,2.973-.1,3.8-11.23.309-12.673-2.782Z" transform="translate(-2662.719 -834.288)" fill="#a8d29f"/>
          <g id="Group_4059" data-name="Group 4059" transform="translate(0.999 5.174)">
            <path id="Path_11988" data-name="Path 11988" d="M2712.765,875.205s-21.636,7.006-24.109,14.836a16.436,16.436,0,0,1-2.061,7.521v1.545s2.267-5.254,3.5-5.976C2690.1,893.132,2685.257,886.332,2712.765,875.205Z" transform="translate(-2684.575 -875.205)" fill="#82b378"/>
            <path id="Path_11989" data-name="Path 11989" d="M2672.638,1045.365a14.27,14.27,0,0,0-1.435,11.235l.858-.231s-.833-6.793.912-10.21S2672.638,1045.365,2672.638,1045.365Z" transform="translate(-2670.617 -1023.008)" fill="#82b378"/>
          </g>
        </g>
        <path id="Path_11990" data-name="Path 11990" d="M2611.406,1126.927a15.136,15.136,0,1,1-30.272,0Z" transform="translate(-2572.797 -1089.922)" fill="#083157"/>
        <path id="Path_11991" data-name="Path 11991" d="M2601.443,1126.927c0,5.671-1.358,11.447-5.974,14.039-.767.431-3.337-.036-4.179.258a15.142,15.142,0,0,1-10.155-14.3Z" transform="translate(-2572.797 -1089.922)" fill="#588ec1"/>
        <path id="Path_11992" data-name="Path 11992" d="M2610.17,1239.816h-30.691a1.868,1.868,0,0,1,1.868-1.868H2608.3A1.868,1.868,0,0,1,2610.17,1239.816Z" transform="translate(-2571.351 -1186.904)" fill="#083157"/>
        <path id="Path_11993" data-name="Path 11993" d="M2595.79,1239.816h-16.311a1.868,1.868,0,0,1,1.868-1.868h12.576A1.868,1.868,0,0,1,2595.79,1239.816Z" transform="translate(-2571.351 -1186.904)" fill="#588ec1"/>
        <rect id="Rectangle_2187" data-name="Rectangle 2187" width="31.114" height="0.464" transform="translate(7.84 37.005)" fill="#b5453c"/>
      </g>
    </g>
  </g>
</svg>
